HIERARCHY
ROOT RootJoint
{
    OFFSET   0.000000   0.000000   0.000000
    CHANNELS 6 Xposition Yposition Zposition Xrotation Yrotation Zrotation
    JOINT pelvis_lowerback
    {
        OFFSET   0.000000   0.093605   0.000000
        CHANNELS 3 Xrotation Yrotation Zrotation
        JOINT lowerback_torso
        {
            OFFSET   0.000000   0.100000   0.000000
            CHANNELS 3 Xrotation Yrotation Zrotation
            JOINT torso_head
            {
                OFFSET   0.000000   0.282350   0.000000
                CHANNELS 3 Xrotation Yrotation Zrotation
                End Site
                {
                    OFFSET   0.000000   0.192650   0.000000
                }
            }
            JOINT rTorso_Clavicle
            {
                OFFSET  -0.001000   0.157500   0.000000
                CHANNELS 3 Xrotation Yrotation Zrotation
                JOINT rShoulder
                {
                    OFFSET  -0.117647   0.000000   0.000000
                    CHANNELS 3 Xrotation Yrotation Zrotation
                    JOINT rElbow
                    {
                        OFFSET  -0.245000   0.000000   0.000000
                        CHANNELS 3 Xrotation Yrotation Zrotation
                        JOINT rWrist
                        {
                            OFFSET  -0.240000   0.000000   0.000000
                            CHANNELS 3 Xrotation Yrotation Zrotation
                            End Site
                            {
                                OFFSET  -0.116353  -0.002500   0.000000
                            }
                        }
                    }
                }
            }
            JOINT lTorso_Clavicle
            {
                OFFSET   0.001000   0.157500   0.000000
                CHANNELS 3 Xrotation Yrotation Zrotation
                JOINT lShoulder
                {
                    OFFSET   0.117647   0.000000   0.000000
                    CHANNELS 3 Xrotation Yrotation Zrotation
                    JOINT lElbow
                    {
                        OFFSET   0.245000   0.000000   0.000000
                        CHANNELS 3 Xrotation Yrotation Zrotation
                        JOINT lWrist
                        {
                            OFFSET   0.240000   0.000000   0.000000
                            CHANNELS 3 Xrotation Yrotation Zrotation
                            End Site
                            {
                                OFFSET   0.116353  -0.002500   0.000000
                            }
                        }
                    }
                }
            }
        }
    }
    JOINT rHip
    {
        OFFSET  -0.100000  -0.051395   0.000000
        CHANNELS 3 Xrotation Yrotation Zrotation
        JOINT rKnee
        {
            OFFSET   0.000000  -0.410000   0.000000
            CHANNELS 3 Xrotation Yrotation Zrotation
            JOINT rAnkle
            {
                OFFSET   0.000000  -0.390000   0.000000
                CHANNELS 3 Xrotation Yrotation Zrotation
                JOINT rToeJoint
                {
                    OFFSET   0.000000  -0.050000   0.130000
                    CHANNELS 3 Xrotation Yrotation Zrotation
                    End Site
                    {
                        OFFSET  -0.010000   0.002000   0.060000
                    }
                }
            }
        }
    }
    JOINT lHip
    {
        OFFSET   0.100000  -0.051395   0.000000
        CHANNELS 3 Xrotation Yrotation Zrotation
        JOINT lKnee
        {
            OFFSET   0.000000  -0.410000   0.000000
            CHANNELS 3 Xrotation Yrotation Zrotation
            JOINT lAnkle
            {
                OFFSET   0.000000  -0.390000   0.000000
                CHANNELS 3 Xrotation Yrotation Zrotation
                JOINT lToeJoint
                {
                    OFFSET   0.000000  -0.050000   0.130000
                    CHANNELS 3 Xrotation Yrotation Zrotation
                    End Site
                    {
                        OFFSET   0.010000   0.002000   0.060000
                    }
                }
            }
        }
    }
}
MOTION
Frames: 12
Frame Time:   0.008333
 -2.376719   0.925631   3.975860   0.000000   0.000000   0.000000   0.000000   0.000000   0.000000   0.000000   0.000000   0.000000   0.000000   0.000000   0.000000   0.000000   0.000000   0.000000   0.000000   0.000000   0.000000   0.000000   0.000000   0.000000   0.000000   0.000000   0.000000   0.000000   0.000000   0.000000   0.000000   0.000000   0.000000   0.000000   0.000000   0.000000   0.000000   0.000000   0.000000   0.000000   0.000000   0.000000   0.000000   0.000000   0.000000   0.000000   0.000000   0.000000   0.000000   0.000000   0.000000   0.000000   0.000000   0.000000   0.000000   0.000000   0.000000   0.000000   0.000000   0.000000   0.000000   0.000000   0.000000
 -2.376744   0.926163   3.976065  -0.459208   0.118463  -0.159926   0.471685   0.024440   0.142228   0.133466  -0.156037   0.078149  -0.120470   0.122244   0.088402   0.170811  -0.414964   0.214090   0.601502   0.217230   2.138512   0.030590   1.444314  -0.011897   0.220360  -0.593723  -2.870723   0.210767   0.298354  -0.347083   0.800450   0.068986  -2.122212   0.033514  -1.582153   0.016340   0.278023   0.462690   2.912763   0.283795  -0.198025   0.108822   1.009865   0.000448  -0.000713  -1.247989  -0.457276  -0.155589   0.122663   0.000220  -0.000576   0.048267   0.033768   0.264627   1.436888  -0.001281   0.001928  -1.366189   0.301294   0.096588   0.152806  -0.000268   0.000604
 -2.376759   0.927074   3.976550  -0.979185   0.227853  -0.340959   0.893848   0.060807   0.299551   0.311253  -0.305479   0.182943  -0.206080   0.240071   0.188534   0.340588  -0.772208   1.131434   1.178096   0.509149   4.836972   0.070507   2.848625  -0.019965   0.473949  -0.752025  -5.048518   0.420787   0.543327  -1.405386   1.585412   0.054069  -4.819516   0.077025  -3.113878   0.027805   0.601897   0.483075   5.125299   0.667125  -0.394559   0.167448   2.118839   0.001523  -0.001487  -2.416256  -0.887992  -0.311311   0.172947   0.000297  -0.000690   0.155650   0.081213   0.622373   2.973456  -0.003234   0.003773  -2.639270   0.587812   0.196009   0.253035  -0.000452   0.000872
 -2.376748   0.927964   3.977236  -1.476463   0.320076  -0.517351   1.247123   0.102362   0.455043   0.457921  -0.440081   0.292228  -0.286463   0.350186   0.286195   0.505441  -1.068785   2.485266   1.725553   0.853808   7.903039   0.109502   4.171388  -0.024472   0.724282  -0.763908  -6.406251   0.620257   0.736964  -2.891329   2.352311  -0.025773  -7.888057   0.119382  -4.554544   0.034751   0.922967   0.365347   6.513883   1.079179  -0.580785   0.158600   3.196880   0.002918  -0.002240  -3.506110  -1.288153  -0.465228   0.216175   0.000365  -0.000740   0.273782   0.130277   1.028814   4.443012  -0.005279   0.005104  -3.825914   0.854540   0.295795   0.345946  -0.000622   0.001031
 -2.376714   0.928546   3.978062  -1.937541   0.393888  -0.684722   1.542940   0.147200   0.605613   0.567068  -0.560553   0.400414  -0.367610   0.452870   0.378407   0.667751  -1.322083   4.089567   2.245037   1.241666  11.216740   0.142976   5.410324  -0.026547   0.964303  -0.723736  -7.145887   0.810287   0.896990  -4.616327   3.104105  -0.162020 -11.204575   0.155628  -5.902719   0.038551   1.231887   0.204750   7.285052   1.498576  -0.756844   0.089652   4.220803   0.004375  -0.002966  -4.524299  -1.659765  -0.616526   0.251184   0.000411  -0.000740   0.388133   0.178838   1.467030   5.822289  -0.007171   0.005974  -4.934184   1.102278   0.394949   0.426003  -0.000748   0.001089
 -2.376664   0.928607   3.978980  -2.363374   0.449421  -0.842834   1.793271   0.194227   0.750590   0.646236  -0.668247   0.506098  -0.448704   0.548583   0.464766   0.828923  -1.545436   5.819717   2.736608   1.665615  14.695702   0.169179   6.567236  -0.027066   1.191032  -0.669782  -7.462209   0.992295   1.036153  -6.455974   3.841590  -0.348847 -14.685566   0.183919  -7.161059   0.040271   1.524673   0.038473   7.634960   1.916662  -0.923070  -0.028657   5.187855   0.005732  -0.003652  -5.475842  -2.004759  -0.764457   0.279062   0.000432  -0.000705   0.494521   0.225913   1.926718   7.112046  -0.008799   0.006479  -5.969609   1.332191   0.492724   0.494171  -0.000829   0.001076
 -2.376645   0.927980   3.979952  -2.757854   0.489518  -0.989047   2.008418   0.243061   0.882515   0.704580  -0.763846   0.593751  -0.528453   0.637640   0.549739   0.990270  -1.748122   7.600561   3.199810   2.120500  18.289469   0.187878   7.645456  -0.026657   1.403163  -0.620489  -7.492698   1.170177   1.163480  -8.379430   4.528455  -0.571440 -18.122354   0.203264  -8.334433   0.040299   1.800200  -0.122014   7.627858   2.328849  -1.079919  -0.185178   6.099548   0.006866  -0.004262  -6.365216  -2.325011  -0.908487   0.300818   0.000431  -0.000649   0.591205   0.270759   2.400894   8.317258  -0.010155   0.006731  -6.936981   1.545399   0.588449   0.552318  -0.000871   0.001019
 -2.376631   0.925968   3.980325  -2.910209   0.503477  -1.143210   2.118037   0.327833   1.074805   0.726300  -0.829226   0.609014  -0.742077   0.676762   0.572074   1.196843  -1.868913   8.800665   3.830904   2.567247  21.726087   0.207158   8.976302  -0.031612   1.545256  -0.666568  -6.439466   1.430738   1.280024  -9.612125   4.977899  -0.819205 -21.497426   0.219262  -9.699254   0.040614   1.994215  -0.280020   6.611826   2.445201  -1.389195  -0.283917   6.991035   0.007123  -0.006087  -7.091392  -2.586397  -0.856486   0.578909   0.000841  -0.001891   0.524812   0.504401   2.828562   8.670296  -0.008793   0.006339  -7.751314   1.816532   0.752349   0.661979  -0.001080   0.001338
 -2.376636   0.922766   3.980289  -3.018369   0.574968  -1.288481   2.281024   0.403945   1.258760   0.757726  -0.889789   0.619901  -0.950641   0.711026   0.585330   1.376072  -1.933629   9.746171   4.384214   3.050614  24.816971   0.213358  10.238822  -0.035778   1.706271  -0.594590  -5.436623   1.655160   1.344150 -10.573261   5.371285  -1.101010 -24.523206   0.222410 -10.992679   0.040385   2.191276  -0.548998   5.673228   2.540827  -1.690141  -0.336743   7.808279   0.006826  -0.006831  -7.767593  -2.831644  -0.811183   0.850157   0.001036  -0.002662   0.331302   0.725175   3.198921   8.844044  -0.007274   0.005606  -8.521296   2.068278   0.909615   0.746635  -0.001109   0.001500
 -2.376517   0.921648   3.980460  -3.205176   0.540132  -0.965108   2.495434   0.530225   1.065631   0.841257  -0.905168   0.474764  -1.130880   0.744460   0.584603   1.529047  -1.949305  10.739460   4.863301   3.559529  27.713943   0.213508  11.425364  -0.038263   1.872778  -0.477689  -4.639054   1.857625   1.392896 -11.495906   5.719962  -1.382267 -27.290842   0.219152 -12.192834   0.039132   2.380896  -0.792356   4.991795   2.738040  -1.952980  -0.781644   8.562388   0.005909  -0.007524  -8.390731  -3.062451  -0.773289   1.160107   0.001042  -0.003534   0.071496   1.027620   2.897481   9.743291  -0.005473   0.006845  -8.685228   2.347260   0.945295   0.840370  -0.000927   0.001663
 -2.376694   0.920971   3.980717  -3.326437   0.467345  -0.778779   2.660626   0.673916   1.031813   0.907726  -0.891868   0.357816  -1.296143   0.775992   0.573954   1.664000  -1.947561  11.555378   5.282289   4.068405  30.368851   0.207656  12.541881  -0.039262   2.037001  -0.313585  -3.893887   2.052857   1.446666 -12.298628   6.037617  -1.656296 -29.867076   0.210366 -13.317003   0.037046   2.561832  -1.044608   4.344465   2.897541  -2.201951  -0.960758   9.266762   0.004297  -0.007981  -8.974519  -3.277222  -0.739962   1.430289   0.000715  -0.004073  -0.101258   1.272511   2.742850  10.409831  -0.004257   0.006619  -9.083900   2.574554   1.044505   0.956886  -0.000853   0.001755
 -2.377091   0.920482   3.980955  -3.387188   0.416052  -0.638882   2.806556   0.810362   1.041778   0.955608  -0.872398   0.272125  -1.453893   0.804903   0.569563   1.781466  -1.936307  12.236655   5.647555   4.565399  32.794306   0.197706  13.588336  -0.039336   2.195634  -0.129949  -3.260109   2.233756   1.495439 -12.984886   6.323133  -1.922474 -32.234371   0.197790 -14.367458   0.034475   2.733715  -1.294470   3.778359   3.030064  -2.440926  -1.001842   9.922002   0.002536  -0.007926  -9.521123  -3.476554  -0.710065   1.666757   0.000289  -0.004245  -0.259285   1.483952   2.648208  10.927573  -0.003382   0.006115  -9.519828   2.778813   1.152870   1.045408  -0.000781   0.001699
